<?xml version="1.0" encoding="UTF-8"?>
<svg id="Layer_2" data-name="Layer 2" xmlns="http://www.w3.org/2000/svg" viewBox="0 0 1200.64 430.63">
  <defs>
    <style>
      .cls-1 {
        fill: none;
        stroke: #000;
        stroke-miterlimit: 10;
        stroke-width: 3px;
      }

      .cls-2 {
        stroke-width: 0px;
      }
    </style>
  </defs>
  <g id="Layer_1-2" data-name="Layer 1">
    <g>
      <g>
        <path class="cls-2" d="m0,58.32h98.23c33.01,0,51.85,14.99,51.85,38.28,0,13.97-7.29,24.91-20.86,31.19,16,5.47,24.71,16.81,24.71,33.01,0,23.9-19.24,39.29-52.46,39.29H0V58.32Zm43.75,29.37v27.54h47.39c9.92,0,16-4.66,16-13.77s-6.08-13.77-16-13.77h-47.39Zm0,55.09v28.56h49.82c10.53,0,16.81-4.66,16.81-14.18s-6.28-14.38-16.81-14.38h-49.82Z"/>
        <path class="cls-2" d="m161.01,143.59c0-36.46,28.76-59.95,70.68-59.95s70.48,23.49,70.48,59.95-28.56,59.95-70.48,59.95-70.68-23.29-70.68-59.95Zm99.85,0c0-20.86-11.54-32-29.16-32s-29.17,11.14-29.17,32,11.54,32.2,29.17,32.2,29.16-11.34,29.16-32.2Z"/>
        <path class="cls-2" d="m311.7,87.08h42.53v20.66c8.91-14.78,22.89-23.09,42.53-23.09h2.03v34.23c-3.85-.81-7.9-1.22-11.95-1.22-13.57,0-26.33,4.66-32.61,13.37v69.06h-42.53v-113.01Z"/>
        <path class="cls-2" d="m401.63,143.59c0-36.05,29.16-59.95,69.06-59.95s68.25,23.09,68.25,62.38v2.43h-96.4c1.62,18.63,12.35,28.35,28.56,28.35,12.76,0,22.08-6.28,26.33-19.04h40.3c-7.09,27.95-32.2,45.77-67.24,45.77-40.3,0-68.86-23.7-68.86-59.95Zm42.53-13.77h53.06c-4.25-13.16-13.97-20.25-26.53-20.25-13.37,0-22.89,7.29-26.53,20.25Z"/>
        <path class="cls-2" d="m546.84,143.59c0-35.24,23.29-59.14,57.52-59.14,17.82,0,32.61,7.09,42.33,19.85v-45.97h42.33v141.77h-42.33v-17.21c-9.72,12.76-24.51,19.85-42.33,19.85-34.43,0-57.52-23.29-57.52-59.14Zm100.05,0c0-20.86-11.54-32-29.57-32s-28.96,11.14-28.96,31.8,11.34,32.4,28.96,32.4,29.57-11.34,29.57-32.2Z"/>
        <path class="cls-2" d="m698.74,143.59c0-36.46,28.76-59.95,70.68-59.95s70.48,23.49,70.48,59.95-28.56,59.95-70.48,59.95-70.68-23.29-70.68-59.95Zm99.85,0c0-20.86-11.54-32-29.16-32s-29.17,11.14-29.17,32,11.54,32.2,29.17,32.2,29.16-11.34,29.16-32.2Z"/>
        <path class="cls-2" d="m849.43,87.08h42.33v14.58c9.32-10.94,22.48-17.21,38.68-17.21,17.21,0,30.99,7.29,38.28,19.65,10.33-12.56,25.11-19.65,43.54-19.65,27.75,0,46.38,17.01,46.38,44.15v71.49h-42.33v-66.43c0-14.18-8.51-20.86-20.66-20.86-8.1,0-15.59,3.24-21.06,8.51.2,2.43.41,4.86.41,7.29v71.49h-41.92v-66.43c0-14.18-8.1-20.86-19.65-20.86-9.11,0-16.81,3.85-21.67,9.92v77.37h-42.33v-113.01Z"/>
        <path class="cls-2" d="m0,227.02h98.23c33.01,0,51.85,14.99,51.85,38.28,0,13.97-7.29,24.91-20.86,31.19,16,5.47,24.71,16.81,24.71,33.01,0,23.9-19.24,39.29-52.46,39.29H0v-141.77Zm43.75,29.37v27.54h47.39c9.92,0,16-4.66,16-13.77s-6.08-13.77-16-13.77h-47.39Zm0,55.09v28.56h49.82c10.53,0,16.81-4.66,16.81-14.18s-6.28-14.38-16.81-14.38h-49.82Z"/>
        <path class="cls-2" d="m162.03,327.47v-71.7h42.33v65.82c0,14.58,9.32,21.47,22.28,21.47,9.52,0,17.82-4.05,22.89-10.13v-77.16h42.33v113.01h-42.33v-14.38c-9.52,10.94-23.09,17.01-39.9,17.01-28.35,0-47.59-17.01-47.59-43.95Z"/>
        <path class="cls-2" d="m301.17,329.7h39.09c3.04,11.75,13.37,18.02,27.95,18.02,16.2,0,22.48-4.46,22.48-10.13,0-8.3-13.37-10.33-29.97-12.56-25.72-3.44-58.94-7.09-58.94-34.84,0-22.28,22.89-37.47,59.34-37.47s62.18,14.58,68.46,40.51h-38.48c-4.25-11.34-13.97-16.2-29.17-16.2-13.37,0-19.65,4.25-19.65,9.11,0,7.7,12.76,9.72,28.56,11.75,26.13,3.44,60.35,7.09,60.35,35.65,0,21.87-23.7,38.28-62.38,38.28-35.44,0-61.57-14.18-67.65-42.13Z"/>
        <path class="cls-2" d="m465.22,337.2v-55.09h-32.81v-26.33h32.81v-23.29h41.72v23.29h40.3v26.33h-40.3v48.61c0,7.49,4.66,10.94,15.39,10.94h24.91v27.14h-46.58c-24.3,0-35.44-10.94-35.44-31.59Z"/>
        <path class="cls-2" d="m550.29,312.28c0-36.05,29.17-59.95,69.06-59.95s68.25,23.09,68.25,62.38v2.43h-96.4c1.62,18.63,12.35,28.35,28.56,28.35,12.76,0,22.08-6.28,26.33-19.04h40.3c-7.09,27.95-32.2,45.77-67.24,45.77-40.3,0-68.86-23.7-68.86-59.95Zm42.53-13.77h53.06c-4.25-13.16-13.97-20.25-26.53-20.25-13.37,0-22.89,7.29-26.53,20.25Z"/>
        <path class="cls-2" d="m697.13,255.78h42.53v20.66c8.91-14.79,22.89-23.09,42.53-23.09h2.03v34.23c-3.85-.81-7.9-1.21-11.95-1.21-13.57,0-26.33,4.66-32.61,13.37v69.06h-42.53v-113.01Z"/>
      </g>
      <path class="cls-1" d="m804.87,429.9c6.12-11.66,14.13-29.11,20.1-51.31,8.41-31.26,18.94-70.98,1.7-102.5-23.2-42.45-86.69-51.49-123.56-56.73-9.72-1.38-17.8-1.98-23.2-2.26,4.39-.87,10.85-2.23,18.58-4.13,64.76-15.9,105.77-25.97,126.4-58.59,31.02-49.05-1.24-121.9-2.94-125.6-.37-.8-.67-1.45-.9-1.92-3.9-8.21-7.8-16.42-11.71-24.63,4.5,7.5,9.01,15,13.51,22.5,6.43,9.64,18.14,24.58,37.16,37.26,4.08,2.72,35.81,21.67,70.42,22.45,54.73,1.23,105.29-32.2,126.4-83.88-3.7,9.05-8.45,21.85-12.65,37.57-4.61,17.26-28.27,79.25-4.12,119.42,22.04,36.67,77.56,46.17,132.89,55.64,6.35,1.09,11.68,1.83,15.45,2.31-10.75,1.28-25.74,3.57-43.28,7.93-51.35,12.75-88.19,21.9-105.8,50.74-18.4,30.14-8.46,69.76,2.91,115.09,4.24,16.91,9.23,30.65,13.11,40.26-25.11-45.15-72.67-73.4-124.2-73.74-52.35-.34-100.91,28.18-126.28,74.14Z"/>
    </g>
  </g>
</svg>